<?xml version="1.0" encoding="UTF-8" standalone="no"?>
<svg
   inkscape:version="1.1.1 (3bf5ae0d25, 2021-09-20)"
   sodipodi:docname="Elektroladesaeulen.svg"
   xml:space="preserve"
   enable-background="new 0 0 100 100"
   viewBox="0 0 22.971863 23.04026"
   height="23.04026"
   width="22.971863"
   y="0px"
   x="0px"
   id="Ebene_1"
   version="1.1"
   xmlns:inkscape="http://www.inkscape.org/namespaces/inkscape"
   xmlns:sodipodi="http://sodipodi.sourceforge.net/DTD/sodipodi-0.dtd"
   xmlns="http://www.w3.org/2000/svg"
   xmlns:svg="http://www.w3.org/2000/svg"
   xmlns:rdf="http://www.w3.org/1999/02/22-rdf-syntax-ns#"
   xmlns:cc="http://creativecommons.org/ns#"
   xmlns:dc="http://purl.org/dc/elements/1.1/"><metadata
   id="metadata21"><rdf:RDF><cc:Work
       rdf:about=""><dc:format>image/svg+xml</dc:format><dc:type
         rdf:resource="http://purl.org/dc/dcmitype/StillImage" /></cc:Work></rdf:RDF></metadata><defs
   id="defs18"><clipPath
     id="clipPath13305"
     clipPathUnits="userSpaceOnUse"><path
       d="m 2.6074219,29.519531 v 5.722657 H 52.294922 v -5.722657 z m 30.2460941,2.115235 c 0.01095,-0.0025 0.02544,7.8e-5 0.04102,0.0078 0.0039,0.002 0.0079,0.0038 0.01172,0.0059 0.0033,0.0018 0.0065,0.0039 0.0098,0.0059 0,0 0.002,0 0.002,0 0.0021,1.38e-4 0.0037,-2.41e-4 0.0059,0 0.009,0.001 0.01597,0.0022 0.02344,0.0039 0.0012,-0.0054 0.0032,-0.01002 0.0078,-0.01172 0.0043,-0.0016 0.0095,-0.0012 0.01758,0.002 0.0036,0.0018 0.0129,0.0064 0.01953,0.0098 0.003,3.06e-4 0.0058,9.83e-4 0.0078,0.002 h 0.01953 c 0.02443,0 0.03959,0.0083 0.04687,0.01953 0.0041,-1.34e-4 0.0081,-5.77e-4 0.01172,0 l 0.002,-0.002 h 0.002 c 0.0029,-5.24e-4 0.0046,-0.0017 0.0078,-0.002 0.0033,-9.61e-4 0.0079,-0.0034 0.01172,-0.0039 0.0038,-5.15e-4 0.0074,0 0.01172,0 0.008,0 0.01564,0.0018 0.02344,0.0039 h 0.002 0.002 c 0.0024,-5.35e-4 0.0055,-0.0019 0.0059,0 v 0.002 c 0.01153,0.06807 0.02646,0.0646 0,0.06836 -0.0026,2.25e-4 -0.0059,-1.52e-4 -0.0078,0 -0.0032,2.57e-4 -0.0046,7.22e-4 -0.0078,0 h -0.002 c -0.0032,9e-6 -0.0072,-4.5e-5 -0.01172,0 -0.0049,1.8e-5 -0.0088,-1.9e-5 -0.01367,0 -0.0018,1.3e-5 -0.0041,0 -0.0059,0 l -0.002,-0.002 h -0.002 c -0.0079,0.0035 -0.01727,0.0059 -0.0293,0.0059 -0.0022,-5e-6 -5.3e-4,-4.2e-5 -0.0039,0 -0.0052,7.5e-5 -0.01062,4.88e-4 -0.01563,0 h -0.002 c -0.0016,8.8e-4 -0.0024,0.0032 -0.0039,0.0039 -0.0048,0.0028 -0.01046,0.004 -0.01953,0.0039 -0.0043,-1e-6 -0.0074,1.83e-4 -0.01172,0 -0.0053,9.25e-4 -0.0043,3.5e-5 -0.0039,0 -0.0011,1.2e-4 -0.0036,-4.98e-4 -0.0078,0 -0.01365,-0.0041 -0.01841,-0.0042 -0.02148,-0.0059 -0.01443,3.13e-4 -0.01449,0.0024 -0.02148,-0.0039 l 0.002,-0.002 c -0.0017,3.65e-4 -0.0037,-2.82e-4 -0.0059,0 -0.005,6e-4 -0.0087,0.0022 -0.01367,0.002 -0.011,-4.62e-4 -0.02539,-0.0087 -0.0332,-0.01758 h -0.002 l -0.002,-0.002 c -0.0013,-4.6e-4 -0.003,3e-4 -0.0039,0 -0.0041,-0.0014 -0.0049,-0.0034 -0.0059,-0.0039 0.0015,2.5e-5 0.0039,10e-5 0.0039,0 v -0.002 h -0.002 c -0.0045,-6.61e-4 -0.0091,0 -0.01367,0 -0.04643,0 -0.06059,-0.03167 -0.04492,-0.05273 -0.0029,-0.01605 0.0034,-0.03101 0.02148,-0.03516 z m 0.208984,0.0918 v 0.002 c -0.0067,0.0089 -0.01179,0.01314 -0.01563,0.01758 0.0013,-4.57e-4 0.0041,6.02e-4 0.0059,0 0.0013,-4.42e-4 0.0023,-0.0014 0.0039,-0.002 v 0.002 c 0.0102,-4.45e-4 0.01996,-0.003 0.01953,-0.01172 -0.0053,-0.0026 -0.01048,-0.0042 -0.01367,-0.0078 z"
       style="fill:#ff0000;fill-opacity:1;fill-rule:nonzero;stroke:none"
       id="path13307" /></clipPath><clipPath
     id="clipPath13671"
     clipPathUnits="userSpaceOnUse"><path
       d="m 16.277344,23.597656 v 8.212891 c 0.0059,-3.4e-5 0.01171,2.4e-5 0.01758,0 0.02624,0.0011 0.05186,0.0032 0.07813,0.0039 0.0053,-7.18e-4 0.01034,-0.0014 0.01563,-0.002 0.02548,-0.0028 0.05065,-0.0054 0.07617,-0.0078 0.126911,-0.0052 0.250383,-0.002 0.375,0.02539 0.04864,0.01069 0.09627,0.02285 0.144531,0.03516 0.002,5e-4 0.0076,0.0027 0.0059,0.0039 -0.0051,0.0038 -0.01158,0.0039 -0.01758,0.0059 0.136886,1.36e-4 0.27327,5.13e-4 0.410156,0 0.132154,0 0.264354,0.0017 0.396485,0 0.238367,-0.01234 0.475824,-0.0039 0.712891,0.02539 0.159384,0.0015 0.317505,0.0221 0.476562,0.0293 0.037,0.0017 0.07438,-6.47e-4 0.111328,0.002 0.06252,0.0043 0.123217,0.01303 0.185547,0.01953 0.01125,0.0031 0.02427,0.0036 0.03516,0.0078 0.0052,0.002 0.0082,0.009 0.01367,0.0098 0.01708,0.0024 0.03354,1.6e-5 0.05078,0 0.07355,-6.5e-5 0.147153,2.26e-4 0.220704,0 0.06682,3.3e-5 0.106616,-0.0016 0.11914,0.002 0.153303,-0.03503 0.314029,0.02865 0.466797,0.0293 0.516864,-9.9e-5 1.03391,-1.28e-4 1.550781,0 -0.01614,-0.03634 0.0031,-0.0872 0.07617,-0.115234 0.01278,-0.0049 0.02619,-0.01103 0.03906,-0.01563 0.0094,-0.0034 0.01804,-0.0059 0.02734,-0.0098 0.0028,-0.0012 0.0084,-0.0069 0.0078,-0.0039 5.7e-4,-0.0021 0.0038,-0.0068 0.0039,-0.0078 -0.0021,5.83e-4 9.17e-4,0.0016 0.04492,-0.01953 8.41e-4,-0.0024 0.0012,-0.0054 0.002,-0.0078 l 0.002,-0.002 c 0.007,-0.0031 0.01455,-0.0066 0.02148,-0.0098 0.05969,-0.02699 0.119674,-0.05356 0.177734,-0.08398 0.02285,-0.01145 0.04549,-0.0218 0.06836,-0.0332 h 0.002 l 0.0039,-0.0039 h 0.002 c 0.0013,-0.0013 0.0027,-0.0026 0.0039,-0.0039 0.03799,-0.02043 0.0253,-0.01884 0.04687,-0.02344 0.0013,-9.8e-4 0.0025,-0.0016 0.0039,-0.002 -0.0017,-0.01236 -4.27e-4,-0.02704 0.0039,-0.04297 0.01,-0.03638 0.01723,-0.04644 0.0625,-0.06055 0.0056,-0.0018 0.01177,0.0017 0.01758,0.0039 h 0.002 c 0.0014,-1.02e-4 0.0025,4.6e-5 0.0039,0 0.0048,-1.61e-4 0.0089,6.4e-5 0.01367,0 0.0033,-4.4e-5 0.0067,-8.81e-4 0.0098,0 0.0111,0.0031 0.02215,0.0077 0.0332,0.01172 0.0055,-0.0015 0.0091,-0.0023 0.01758,-0.0039 0.0071,-0.01323 0.01523,-0.02617 0.02734,-0.03711 0.01757,-0.01587 0.03489,-0.02445 0.05078,-0.02734 0.03062,-0.0055 0.05268,0.01129 0.05859,0.03516 h 0.002 c 0.0035,-8.52e-4 0.0064,-8.59e-4 0.0098,-0.002 0.0081,-0.0064 0.01701,-0.01195 0.02344,-0.01953 0.0044,0.0085 0.0088,0.01708 0.01367,0.02539 0.0071,0.0015 0.01083,0.0036 0.01367,0.0059 0.0105,-0.0052 0.01989,-0.01142 0.0293,-0.01563 -0.0075,-0.0055 -0.01656,-0.0079 -0.02344,-0.0098 0.0037,1.86e-4 0.006,-6e-6 0.01172,0 0.01315,0 0.02595,-6.71e-4 0.03906,-0.002 0.0013,-9.9e-5 0.0026,1.08e-4 0.0039,0 h 0.002 c 0.0089,-0.0028 0.01963,-0.008 0.0293,-0.0098 0.003,-5.34e-4 0.0053,-0.0023 0.0078,-0.002 0.03287,-0.01192 0.0342,-0.01209 0.06836,-0.01953 0.002,-4.1e-4 0.0067,-0.0012 0.0098,-0.002 0.02195,-0.0116 0.04575,-0.01802 0.07813,-0.0293 0.04526,-0.0073 0.08907,-0.01778 0.134766,-0.02148 0.01151,-9.27e-4 0.02361,-0.0016 0.03516,-0.002 0.03464,-9.78e-4 0.06889,3.96e-4 0.103516,0.002 0.104306,0.0039 0.159565,0.0063 0.21289,0.01172 h 0.002 l 0.002,-0.002 c 0.04511,-0.01264 0.06627,-0.02647 0.103516,0.01758 0.02816,0.0043 0.05717,0.0072 0.09766,0.01367 0.06322,0.0101 0.126593,0.02111 0.189453,0.0332 0.03101,-0.01201 0.0518,-0.02283 0.08594,-0.02734 0.02018,-0.0027 0.04171,-0.01332 0.06055,-0.0059 0.006,0.0025 0.01061,0.0054 0.01563,0.0078 0.02117,0.0051 0.04395,0.0099 0.05469,0.02734 0.0031,0.0051 0.0054,0.0091 0.0078,0.01367 0.0299,-0.0064 0.09074,-0.02005 0.126953,-0.02344 0.102752,-0.0095 0.153574,-0.01037 0.261719,-0.01367 0.05802,-0.0018 0.115798,-0.0025 0.173828,-0.0039 0.01503,-3.58e-4 0.02989,7.5e-5 0.04492,0 0.01309,3.3e-5 0.026,8.52e-4 0.03906,0 0.011,-7e-4 0.04829,-0.01242 0.05469,-0.0059 0.03102,0.03253 0.06447,0.06901 0.07227,0.113281 0.0039,0.02199 -0.03158,0.03702 -0.05859,0.04687 -0.0013,4.76e-4 -0.0026,0.0015 -0.0039,0.002 -0.01878,0.0146 -0.04783,0.02423 -0.08789,0.02148 -0.0032,5.65e-4 -0.0065,0.0015 -0.0098,0.002 -0.01886,0.0028 -0.07514,0.0085 -0.123047,0.01172 -0.0046,6.79e-4 -0.0091,0.0013 -0.01367,0.002 -0.01474,0.0022 -0.03005,0.0049 -0.04492,0.0059 -0.04609,0.0029 -0.09057,0.0042 -0.136718,0.0059 -0.02973,3.83e-4 -0.03239,-2.29e-4 -0.05078,0 -0.06126,0.0059 -0.12654,0.01468 -0.199218,0.02344 0.0078,0.01345 0.01556,0.02764 0.02344,0.04102 l 0.002,0.002 c 0.03203,0.03586 0.0465,0.04718 0.02148,0.117188 0.07,0.02206 0.113158,0.06822 0.128906,0.121094 0.172255,-0.03764 0.349229,-0.05891 0.52539,-0.05469 0.163963,5e-4 0.328235,-0.0011 0.492188,-0.0039 0.109544,-0.0019 0.280444,-0.0084 0.382812,-0.0059 0.03713,9.09e-4 0.07429,0.0049 0.111329,0.0078 0.02573,-0.0094 0.045,-0.008 0.05664,0.0039 0.0052,3.73e-4 0.0104,0.0016 0.01563,0.002 7.5e-5,0.0049 0.0017,0.01065 0.002,0.01563 0.03706,0.0159 0.07741,0.03617 0.107422,0.03906 0.05725,0.0055 0.114554,0.0089 0.171875,0.01367 0.065,-0.0041 0.107874,-0.01019 0.191406,-0.01367 0.05732,-0.0024 0.114516,9.54e-4 0.171876,0.002 0.500685,0.0035 1.001265,0.0013 1.501953,0 0.28334,-0.02344 0.566545,-0.03874 0.851562,-0.02734 0.179154,0.0015 0.358109,-0.0022 0.537109,-0.0098 0.11768,-0.005 0.233836,-0.01727 0.351563,-0.01367 0.03959,0.0012 0.07936,0.0047 0.119141,0.0078 -0.05181,-0.02355 -0.105005,-0.04477 -0.16211,-0.05469 -0.367961,-0.06393 -0.295397,-0.439457 0.03906,-0.396485 0.04754,-0.04943 0.130771,-0.08428 0.248047,-0.08398 h 0.0078 c 0.02104,2.6e-5 0.04342,-7.8e-5 0.06445,0 0.03253,5e-4 0.06527,0.0023 0.09766,-0.002 0.0177,-3.82e-4 0.0333,-0.0017 0.04883,-0.002 0.01553,-2.3e-4 0.031,2.3e-4 0.04883,0.002 0.0285,0.0021 0.05758,0.0063 0.08594,0.0098 0.0026,2.98e-4 0.0084,0.0012 0.0059,0.002 -0.01742,0.0055 -0.06117,0.01241 -0.07227,0.01563 l 0.002,0.002 c 0.03755,2e-5 0.07424,-0.01168 0.111328,-0.01758 0.02429,0.0038 0.04835,0.006 0.07227,0.01172 0.215519,0.05137 0.398875,0.178522 0.589844,0.28711 0.0022,-0.09961 0.05895,-0.03974 0.111328,0.04687 0.03022,0.0053 0.05181,0.02057 0.07422,0.04492 0.0055,0.0013 0.0052,1.3e-4 0.0039,-0.0098 0.07315,-0.03113 0.161284,-0.01557 0.240234,-0.01367 0.05821,-0.001 0.114925,0.0151 0.171875,0.02539 -0.01041,1.68e-4 -0.02086,0.0032 -0.03125,0.0039 -0.058,0.01166 0.01441,-0.0027 0.121094,0.02148 -0.01409,-0.0013 -0.02707,-0.0021 -0.04492,-0.002 -0.0052,0.0011 -0.02003,0.001 -0.01563,0.0039 0.05278,0.03488 0.230892,0.07769 0.259766,0.173829 0.03957,-9.04e-4 0.07964,-0.0028 0.11914,-0.002 0.03077,6.8e-4 0.05985,0.008 0.08984,0.01562 0.06573,-0.02211 0.09889,-0.03491 0.166016,-0.03906 0.01989,-0.0012 0.04261,-0.01261 0.06055,-0.0039 0.03954,0.01916 0.07478,0.0398 0.113281,0.06055 0.01779,-0.0055 0.03751,-0.01201 0.04102,0.002 0.0016,0.0064 0.0023,0.01314 0.0039,0.01953 -1.89e-4,-0.0045 1.83e-4,-0.0091 0,-0.01367 0.0058,7.7e-5 0.01173,-0.002 0.01758,-0.002 -0.04782,-0.03342 -8.77e-4,-7.65e-4 -0.08008,-0.05664 0.08991,0.02154 0.218612,0.01187 0.294921,0.0098 0.08941,-0.0025 0.178292,-0.0064 0.267579,-0.01172 0.002,-4.89e-4 0.0038,-0.0015 0.0059,-0.002 0.05121,-0.01192 0.101837,-0.02045 0.148438,-0.04492 0.06145,-0.02831 0.09811,-0.04626 0.177734,-0.05664 0.06806,-0.0089 0.146637,-0.01007 0.220703,0.0059 0.0078,-1e-6 0.01747,-1.57e-4 0.02344,0 0.04073,7.79e-4 0.08034,2.2e-4 0.121094,0 0.01012,-0.0016 0.02782,-0.0075 0.03125,0 0,0 0.002,0 0.002,0 0.01942,2.5e-5 0.03157,0.0017 0.04687,0.002 0.008,-0.0046 0.01555,-0.0074 0.02344,-0.01172 v -8.298828 z m 6.570312,7.888672 v 0.002 c 0.0056,0.0072 0.0098,0.01471 0.01367,0.02344 l 0.002,0.002 0.002,-0.002 c 0.0013,-6.74e-4 0.0026,-0.0013 0.0039,-0.002 h 0.002 c 0.0059,-5.28e-4 0.0114,0.0014 0.01758,0.0039 -0.0012,-0.0024 -0.0029,-0.0059 -0.0039,-0.0078 -0.0054,-0.01023 -0.0194,-0.01343 -0.0293,-0.01953 -0.004,4.24e-4 -0.005,-1.76e-4 -0.0078,0 z m 0.986328,0.02148 c -7.07e-4,0.0011 -0.0012,0.0027 -0.002,0.0039 0.0019,4.6e-5 0.0053,0.0026 0.0078,0.0039 -0.002,-0.0025 -0.0039,-0.0052 -0.0059,-0.0078 z m 0.0098,0.0098 c 0.0028,0.0036 0.0049,0.0081 0.0078,0.01172 0.0016,-0.0015 0.0021,-0.0022 0.0039,-0.0039 -0.0041,-0.0032 -0.0077,-0.0053 -0.01172,-0.0078 z m 0.0078,0.01172 c -0.0032,0.003 -0.0055,0.0056 -0.0078,0.0078 0.0041,0.0025 0.0077,0.0054 0.01172,0.0078 0.0032,-9.4e-5 0.0065,9.3e-5 0.0098,0 -0.0043,-0.0053 -0.0094,-0.01028 -0.01367,-0.01563 z m -0.0078,0.0078 c -0.0025,-0.0015 -0.0052,-0.0023 -0.0078,-0.0039 -0.0033,-0.0012 -0.0065,-0.0026 -0.0098,-0.0039 4.91e-4,0.0045 0.0022,0.01053 0.0039,0.01758 0.0013,-3.9e-5 0.0026,3.8e-5 0.0039,0 0.0023,-0.0021 0.0063,-0.0064 0.0098,-0.0098 z m -0.01758,-0.0078 c -1.79e-4,-0.0017 3.2e-5,-0.0045 0,-0.0059 -0.001,0.002 -0.003,0.0037 -0.0039,0.0059 0.0011,4.62e-4 0.0028,-4.55e-4 0.0039,0 z m 9.027344,0.105469 c 0.01095,-0.0025 0.02544,2.22e-4 0.04102,0.0078 0.0039,0.002 0.0079,0.0038 0.01172,0.0059 0.0033,0.0018 0.0065,0.0039 0.0098,0.0059 h 0.002 c 0.0021,1.38e-4 0.0037,-2.41e-4 0.0059,0 0.009,0.001 0.01597,0.0022 0.02344,0.0039 0.0012,-0.0054 0.0032,-0.01002 0.0078,-0.01172 0.0043,-0.0016 0.0095,-0.0012 0.01758,0.002 0.0036,0.0018 0.0129,0.0064 0.01953,0.0098 0.003,3.06e-4 0.0058,4.19e-4 0.0078,0.002 h 0.01953 c 0.02443,0 0.03959,0.0083 0.04687,0.01953 0.0034,-1.1e-4 0.0066,-4.28e-4 0.0098,0 0.0016,-4.83e-4 0.0021,-0.0016 0.0039,-0.002 h 0.002 c 0.0029,-5.24e-4 0.0046,-0.0017 0.0078,-0.002 0.0033,-9.61e-4 0.0079,-0.0034 0.01172,-0.0039 0.0038,-5.15e-4 0.0074,0 0.01172,0 0.008,0 0.01564,0.0018 0.02344,0.0039 h 0.002 0.002 c 0.0024,-5.35e-4 0.0055,-0.0019 0.0059,0 v 0.002 c 0.01153,0.06807 0.02646,0.0646 0,0.06836 -0.0026,2.25e-4 -0.0059,-1.52e-4 -0.0078,0 -0.0032,2.57e-4 -0.0046,7.22e-4 -0.0078,0 h -0.002 c -0.0032,9e-6 -0.0072,-4.5e-5 -0.01172,0 -0.0049,1.8e-5 -0.0088,-1.9e-5 -0.01367,0 -0.0018,1.3e-5 -0.0041,0 -0.0059,0 -0.0018,0 -0.0022,-0.0019 -0.0039,-0.002 -0.0079,0.0035 -0.01727,0.0059 -0.0293,0.0059 -0.0022,-5e-6 -6.02e-4,-4.2e-5 -0.0039,0 -0.0052,7.5e-5 -0.01062,4.88e-4 -0.01563,0 h -0.002 c -0.0016,8.8e-4 -0.0024,0.0032 -0.0039,0.0039 -0.0048,0.0028 -0.01046,0.004 -0.01953,0.0039 -0.0043,-1e-6 -0.0074,1.83e-4 -0.01172,0 -0.0053,9.25e-4 -0.0043,3.9e-5 -0.0039,0 -0.0011,1.2e-4 -0.0036,-4.92e-4 -0.0078,0 -0.01365,-0.0041 -0.01841,-0.0042 -0.02148,-0.0059 -0.01443,3.13e-4 -0.01449,0.0024 -0.02148,-0.0039 l 0.002,-0.002 c -0.0017,3.65e-4 -0.0037,-2.82e-4 -0.0059,0 -0.005,6e-4 -0.0087,0.0022 -0.01367,0.002 -0.011,-4.62e-4 -0.02539,-0.0087 -0.0332,-0.01758 h -0.002 l -0.002,-0.002 c -0.0013,-4.6e-4 -0.003,3e-4 -0.0039,0 -0.0041,-0.0014 -0.0049,-0.0034 -0.0059,-0.0039 0.0015,2.5e-5 0.0039,10e-5 0.0039,0 v -0.002 h -0.002 c -0.0045,-6.61e-4 -0.0091,0 -0.01367,0 -0.04487,0 -0.06001,-0.02978 -0.04687,-0.05078 -0.0037,-0.01651 0.0048,-0.03285 0.02344,-0.03711 z m -9.001954,0.09766 c -0.01239,0.0015 -0.02472,0.0044 -0.03711,0.0059 -0.003,0.0017 -0.0067,0.0023 -0.0098,0.0039 10e-4,0.01577 0.0014,0.0313 0,0.04687 0.01347,-4.2e-5 0.02757,-0.0013 0.04102,-0.002 0.02647,-0.0012 0.04238,-0.0026 0.05664,-0.0039 -5.7e-5,-0.01096 0.0092,-0.02546 0.002,-0.0332 -0.0087,-0.0094 -0.02611,0.0045 -0.03711,-0.002 -0.0077,-0.0073 -0.01023,-0.01037 -0.01563,-0.01563 z m 9.207032,0.002 c -0.0044,0.0052 -0.0088,0.0084 -0.01172,0.01172 0.0013,-4.57e-4 0.0041,6.02e-4 0.0059,0 0.0013,-4.42e-4 0.0023,-0.0014 0.0039,-0.002 v 0.002 c 0.0082,-3.56e-4 0.01506,-2.38e-4 0.01758,-0.0059 -0.0055,-0.0019 -0.01185,-0.003 -0.01563,-0.0059 z m -10.648438,0.01953 c -0.01671,0.0093 -0.0143,0.0094 -0.04102,0.01758 -0.0055,0.0017 -0.01018,0.0019 -0.01563,0.0039 v 0.002 c -0.0014,0.0016 -0.0042,0.0026 -0.0059,0.0039 -0.0018,0.0014 -0.0041,0.0044 -0.0059,0.0059 -0.0041,0.01148 -0.0301,0.01781 -0.04492,0.02148 -0.0012,3.07e-4 -0.0029,0.0017 -0.0039,0.002 h -0.002 c -0.0024,6.51e-4 -0.0054,-5.28e-4 -0.0078,0 0.0039,-0.0015 0.0078,-0.0025 0.01172,-0.0039 0.0056,-0.01128 0.0071,-0.02914 -0.07813,0.01563 -0.01845,0.0097 0.04187,-9.49e-4 0.0625,-0.0039 -0.0022,0.0017 -0.0037,0.0044 -0.0059,0.0059 -0.02631,0.01391 -0.05347,0.02573 -0.08008,0.03906 -0.05989,0.03132 -0.122033,0.06006 -0.183593,0.08789 -0.0051,0.0024 -0.01403,0.0069 -0.02539,0.01172 -0.01092,0.01388 -0.02148,0.02757 -0.03125,0.03711 0.239587,-8.06e-4 0.479165,-0.0027 0.71875,0 0.05585,0.0014 0.112169,0.0012 0.167969,0.0039 0.0073,3.55e-4 0.01298,0.0028 0.01953,0.0039 0.02535,-0.0044 0.05064,-0.0069 0.07617,-0.0098 0,0 0,-0.002 0,-0.002 -0.0011,-0.02893 0.03203,-0.01702 0.07031,-0.002 0.02613,0.0025 0.04762,0.0089 0.06445,0.02148 0.0011,1.74e-4 0.0028,0.0018 0.0039,0.002 0.03708,0.0039 0.07422,0.0066 0.111328,0.0098 0.01233,-0.0033 0.02467,-0.0065 0.03711,-0.0098 0.188294,-0.03403 0.149711,-0.02496 0.365235,-0.07617 -0.01378,-5.28e-4 -0.02763,-0.0011 -0.03906,-0.002 -0.01425,-0.0011 -0.02874,-2.43e-4 -0.04297,-0.002 -0.04331,0.031 -0.08397,0.02378 -0.144531,-0.05078 -0.120407,0.01728 -0.242403,0.02712 -0.363281,0.03906 -0.06206,0.0039 -0.123457,0.0084 -0.185547,0.01172 -0.03818,0.0021 -0.077,0.0051 -0.115234,0.0059 -0.01883,3e-4 -0.04439,0.01412 -0.05469,-0.002 -0.01875,-0.02873 -0.03059,-0.05146 -0.03906,-0.07031 h -0.002 c -0.01021,0.0054 -0.01694,0.0072 -0.02148,0 -0.009,-0.01425 -0.01794,-0.02949 -0.02539,-0.04492 -0.0085,0.0028 -0.01444,0.0049 -0.0332,0.0098 -0.0021,-0.0073 -0.0055,-0.01428 -0.0078,-0.02148 -0.01228,0.0046 -0.02476,0.0092 -0.03711,0.01367 -0.0014,4.87e-4 -0.0026,0.0015 -0.0039,0.002 -0.0068,0.0018 -0.01643,0.01192 -0.01953,0.0059 -0.01765,-0.03632 -0.03197,-0.06268 -0.04297,-0.08203 z m -0.425781,0.208985 c 0.01091,-0.01388 0.02039,-0.02611 0.02344,-0.03125 -0.0052,0.0057 -0.01508,0.01901 -0.02539,0.03125 z m -0.002,0 c -0.009,0.0038 -0.01918,0.0067 -0.0293,0.0098 0.0091,-0.04617 0.03936,-0.09374 0.02539,-0.138672 -0.0066,-0.02129 -0.03063,-0.01985 -0.04883,-0.01563 0.0025,-3.62e-4 0.0037,-1.23e-4 0.0039,0.002 v 0.002 c 0.002,-10e-4 0.0017,-5.96e-4 0.0039,-0.002 0.0042,0.05139 0.0067,0.102977 0.01172,0.154297 -0.0027,7.71e-4 -0.0051,0.0013 -0.0078,0.002 -0.0025,0.007 -0.0047,0.01286 -0.0059,0.01758 0.0088,-0.0043 0.01536,-0.0072 0.02734,-0.01367 0.0065,-0.0035 0.01309,-0.0099 0.01953,-0.01758 z m -0.04687,0.03125 c -0.0045,0.0022 -0.0095,0.0039 -0.01367,0.0059 0.0046,-1.4e-5 0.0091,1.5e-5 0.01367,0 2.64e-4,-0.0023 -8.38e-4,-0.0025 0,-0.0059 z m 2.039062,-0.22461 c -0.0062,3.75e-4 -0.01412,0.0023 -0.01563,0.0059 0.0079,-0.0015 0.01259,-0.0018 0.02344,-0.0039 0.0038,-7.5e-4 -0.0016,-0.0023 -0.0078,-0.002 z m -0.43164,0.08789 c -0.0048,0.0048 -0.01064,0.0091 -0.01563,0.01367 -0.0012,0.0015 -0.0027,0.0024 -0.0039,0.0039 0.0066,0.01064 0.01206,0.01965 0.01953,0.02734 -0.0037,0.0039 -0.0062,0.0081 -0.0098,0.01172 0.02088,-0.0037 0.01709,-0.02857 0.0098,-0.05664 z m 8.164062,0.002 c 0.0077,0.0023 0.01557,0.0031 0.02344,0.0059 0.01979,0.0069 0.06569,0.04567 0.04492,0.04297 -0.02327,-0.0031 -0.03403,-0.03182 -0.05469,-0.04297 -0.005,-0.0027 -0.0092,-0.004 -0.01367,-0.0059 z m -8.201172,0.03906 c -0.0015,0.0019 -0.0024,0.004 -0.0039,0.0059 l 0.002,0.002 c 0.0021,-0.0028 0.002,-0.0055 0.002,-0.0078 z m 0.935547,0.197265 c -0.0087,-0.0022 -0.01614,-0.0017 -0.02148,0.0059 -0.01274,0.0181 -0.02299,0.03817 -0.03516,0.05664 0,0 0.002,0 0.002,0 0.01622,2e-5 0.0326,-2.23e-4 0.04883,0 0.01935,-0.0011 0.04602,-0.0029 0.0625,-0.0039 -0.01193,-0.02541 -0.03551,-0.05317 -0.05664,-0.05859 z"
       style="fill:#ff0000;fill-opacity:1;fill-rule:nonzero;stroke:none"
       id="path13673" /></clipPath><linearGradient
     gradientTransform="translate(-24.835999,-22.478001)"
     y2="49.977501"
     x2="77.836899"
     y1="49.977501"
     x1="26.835899"
     gradientUnits="userSpaceOnUse"
     id="linearGradient13782"><stop
       id="stop2-8"
       style="stop-color:#FFFFFF"
       offset="1" /><stop
       id="stop4-9"
       style="stop-color:#000000"
       offset="1" /></linearGradient></defs><sodipodi:namedview
   inkscape:document-rotation="0"
   inkscape:deskcolor="#d1d1d1"
   inkscape:showpageshadow="2"
   inkscape:current-layer="Ebene_1"
   inkscape:window-maximized="1"
   inkscape:window-y="-8"
   inkscape:window-x="-8"
   inkscape:window-height="1017"
   inkscape:window-width="1920"
   inkscape:cy="16.241359"
   inkscape:cx="12.219689"
   inkscape:zoom="22.627417"
   showgrid="false"
   inkscape:pagecheckerboard="0"
   inkscape:pageopacity="0.0"
   inkscape:pageshadow="2"
   borderopacity="1.0"
   bordercolor="#666666"
   pagecolor="#ffffff"
   id="namedview16" />
<linearGradient
   gradientTransform="translate(-24.835999,-22.478001)"
   y2="49.977501"
   x2="77.836899"
   y1="49.977501"
   x1="26.835899"
   gradientUnits="userSpaceOnUse"
   id="SVGID_1_">
	<stop
   id="stop2"
   style="stop-color:#FFFFFF"
   offset="1" />
	<stop
   id="stop4"
   style="stop-color:#000000"
   offset="1" />
</linearGradient>


<g
   style="stroke:#858ead;stroke-opacity:1"
   id="g836"
   transform="scale(0.41767022,0.41891384)"><circle
     style="fill:url(#SVGID_1_);stroke:#858ead;stroke-opacity:1"
     id="circle7"
     r="25.5"
     cy="27.5"
     cx="27.5"
     stroke-miterlimit="10"
     stroke-width="4" /></g><g
   id="g841"
   transform="matrix(0.43327532,0,0,0.43327532,-0.8314106,-0.38590811)"><path
     d="m 15.462554,24.656907 c -0.03603,0.347149 -0.05588,0.701673 -0.05588,1.060752 v 8.318693 c 0,4.71573 3.198572,8.514425 7.172606,8.514425 h 10.599284 c 3.974034,0 7.172606,-3.798695 7.172606,-8.514425 v -8.318693 c 0,-0.359079 -0.01985,-0.713603 -0.05588,-1.060752 z"
     style="fill:#858ead;fill-opacity:1;stroke:#858ead;stroke-width:5.00049;stroke-opacity:1"
     id="rect356" /><rect
     ry="1.7306205"
     y="12.360993"
     x="19.261007"
     height="16.365934"
     width="2.9392655"
     id="rect358"
     style="fill:#ffb53a;fill-opacity:1;stroke:#858ead;stroke-width:4.10434;stroke-opacity:1" /><rect
     ry="1.7306205"
     y="12.360993"
     x="33.039932"
     height="16.365934"
     width="2.9392655"
     id="rect358-8"
     style="fill:#ffb53a;fill-opacity:1;stroke:#858ead;stroke-width:4.10434;stroke-opacity:1" /><path
     d="m 28.714866,23.173071 -9.112193,10.507442 2.07109,0.544622 7.072451,1.925914 -1.682444,7.706788 8.737845,-10.075779 -2.49116,-0.568316 -6.767246,-1.610462 2.166715,-8.411096 z"
     style="fill:#ffffff;fill-opacity:1;stroke:none;stroke-width:1.29089;stroke-opacity:1"
     id="rect2427" /></g></svg>
