<?xml version="1.0" encoding="UTF-8" standalone="no"?>
<!-- Generator: Adobe Illustrator 16.0.0, SVG Export Plug-In . SVG Version: 6.00 Build 0)  -->

<svg
   version="1.1"
   id="Ebene_1"
   x="0px"
   y="0px"
   width="23.000002"
   height="23"
   viewBox="0 0 23.000002 23"
   enable-background="new 0 0 100 100"
   xml:space="preserve"
   sodipodi:docname="Grundschule.svg"
   inkscape:version="1.1.1 (3bf5ae0d25, 2021-09-20)"
   xmlns:inkscape="http://www.inkscape.org/namespaces/inkscape"
   xmlns:sodipodi="http://sodipodi.sourceforge.net/DTD/sodipodi-0.dtd"
   xmlns="http://www.w3.org/2000/svg"
   xmlns:svg="http://www.w3.org/2000/svg"><defs
   id="defs26">
	
	
</defs><sodipodi:namedview
   id="namedview24"
   pagecolor="#ffffff"
   bordercolor="#666666"
   borderopacity="1.0"
   inkscape:pageshadow="2"
   inkscape:pageopacity="0.0"
   inkscape:pagecheckerboard="0"
   showgrid="false"
   inkscape:zoom="8.32"
   inkscape:cx="25.420673"
   inkscape:cy="24.459135"
   inkscape:window-width="1920"
   inkscape:window-height="1017"
   inkscape:window-x="-8"
   inkscape:window-y="-8"
   inkscape:window-maximized="1"
   inkscape:current-layer="Ebene_1" />
<linearGradient
   id="SVGID_1_"
   gradientUnits="userSpaceOnUse"
   x1="26.502899"
   y1="52.998001"
   x2="77.503899"
   y2="52.998001"
   gradientTransform="matrix(0.41818186,0,0,0.41818178,-10.246709,-10.662798)">
	<stop
   offset="1"
   style="stop-color:#FFFFFF"
   id="stop2" />
	<stop
   offset="1"
   style="stop-color:#000000"
   id="stop4" />
</linearGradient>
<ellipse
   fill="url(#SVGID_1_)"
   stroke="#9e005d"
   stroke-width="1.67273"
   stroke-miterlimit="10"
   cx="11.500001"
   cy="11.5"
   id="circle7"
   style="fill:url(#SVGID_1_)"
   rx="10.663636"
   ry="10.663635" />

<g
   id="g15"
   transform="translate(-24.502997,-25.497999)">
</g>
<g
   id="g833"
   transform="matrix(0.43479258,0,0,0.43479258,-0.55428439,-0.3708622)"><path
     id="rect9"
     d="m 27.449219,8.0703125 -9.960938,9.7480465 -9.9628904,9.746094 5.2773434,-0.01758 V 42.929688 H 42.199219 V 27.451172 l 5.304687,-0.01758 -10.027344,-9.681641 z"
     style="fill:#9e005d;fill-opacity:1" /><g
     id="g21"
     transform="translate(-24.502998,-25.498001)">
	<path
   fill="#ffffff"
   d="m 51.99,49.975 c 0,0.217 -0.009,0.404 -0.027,0.562 -0.02,0.156 -0.045,0.282 -0.079,0.376 -0.033,0.093 -0.075,0.159 -0.123,0.196 -0.049,0.037 -0.106,0.057 -0.175,0.057 -0.097,0 -0.254,-0.068 -0.471,-0.203 -0.218,-0.135 -0.506,-0.28 -0.865,-0.438 -0.359,-0.158 -0.788,-0.303 -1.286,-0.438 -0.498,-0.135 -1.076,-0.202 -1.735,-0.202 -0.704,0 -1.34,0.122 -1.909,0.365 -0.569,0.244 -1.056,0.588 -1.46,1.033 -0.404,0.445 -0.715,0.98 -0.932,1.606 -0.217,0.625 -0.326,1.315 -0.326,2.071 0,0.832 0.11,1.563 0.332,2.196 0.221,0.632 0.529,1.162 0.926,1.589 0.397,0.427 0.874,0.748 1.432,0.966 0.558,0.218 1.173,0.325 1.847,0.325 0.33,0 0.655,-0.037 0.977,-0.111 0.322,-0.075 0.622,-0.188 0.898,-0.338 v -3.369 h -2.751 c -0.135,0 -0.24,-0.084 -0.314,-0.252 -0.075,-0.169 -0.112,-0.455 -0.112,-0.859 0,-0.209 0.009,-0.386 0.028,-0.527 0.019,-0.143 0.047,-0.257 0.084,-0.343 0.038,-0.087 0.083,-0.149 0.135,-0.191 0.052,-0.041 0.112,-0.062 0.18,-0.062 h 4.908 c 0.12,0 0.227,0.021 0.32,0.062 0.093,0.042 0.176,0.103 0.247,0.186 0.07,0.083 0.125,0.182 0.162,0.298 0.038,0.115 0.057,0.248 0.057,0.398 v 5.783 c 0,0.225 -0.039,0.422 -0.118,0.59 -0.078,0.169 -0.239,0.302 -0.482,0.398 -0.243,0.098 -0.545,0.199 -0.904,0.304 -0.359,0.105 -0.732,0.194 -1.117,0.27 -0.386,0.075 -0.775,0.131 -1.168,0.169 -0.394,0.037 -0.788,0.056 -1.185,0.056 -1.161,0 -2.199,-0.167 -3.117,-0.5 -0.917,-0.333 -1.694,-0.815 -2.33,-1.448 -0.636,-0.633 -1.123,-1.404 -1.46,-2.313 -0.337,-0.91 -0.505,-1.941 -0.505,-3.095 0,-1.189 0.18,-2.259 0.539,-3.206 0.359,-0.946 0.869,-1.752 1.527,-2.414 0.659,-0.663 1.455,-1.17 2.386,-1.522 0.933,-0.352 1.971,-0.528 3.117,-0.528 0.629,0 1.202,0.043 1.718,0.129 0.517,0.086 0.968,0.191 1.354,0.314 0.385,0.124 0.705,0.257 0.96,0.399 0.255,0.142 0.433,0.266 0.533,0.371 0.102,0.105 0.175,0.253 0.22,0.443 0.043,0.19 0.064,0.473 0.064,0.847 z"
   id="path17" />
	<path
   fill="#ffffff"
   d="m 63.604,57.893 c 0,0.764 -0.143,1.434 -0.428,2.01 -0.284,0.577 -0.67,1.059 -1.156,1.443 -0.486,0.386 -1.056,0.676 -1.707,0.871 -0.651,0.194 -1.348,0.291 -2.089,0.291 -0.501,0 -0.968,-0.041 -1.397,-0.123 -0.432,-0.082 -0.811,-0.182 -1.141,-0.298 -0.33,-0.116 -0.604,-0.237 -0.826,-0.364 -0.221,-0.128 -0.379,-0.24 -0.477,-0.338 -0.098,-0.097 -0.166,-0.237 -0.207,-0.421 -0.042,-0.183 -0.063,-0.447 -0.063,-0.792 0,-0.231 0.008,-0.426 0.022,-0.584 0.015,-0.156 0.04,-0.284 0.073,-0.381 0.033,-0.098 0.078,-0.167 0.135,-0.208 0.057,-0.042 0.121,-0.062 0.196,-0.062 0.104,0 0.253,0.062 0.444,0.185 0.189,0.124 0.436,0.261 0.734,0.41 0.3,0.149 0.658,0.286 1.072,0.41 0.416,0.123 0.897,0.185 1.443,0.185 0.359,0 0.682,-0.043 0.967,-0.129 0.284,-0.086 0.525,-0.207 0.725,-0.365 0.197,-0.156 0.35,-0.352 0.454,-0.584 0.104,-0.231 0.157,-0.49 0.157,-0.774 0,-0.329 -0.09,-0.612 -0.27,-0.848 -0.18,-0.236 -0.414,-0.446 -0.701,-0.629 -0.289,-0.184 -0.617,-0.356 -0.983,-0.517 -0.366,-0.161 -0.745,-0.332 -1.134,-0.512 -0.39,-0.18 -0.768,-0.383 -1.135,-0.611 -0.367,-0.228 -0.694,-0.502 -0.982,-0.82 -0.289,-0.318 -0.522,-0.694 -0.702,-1.129 -0.18,-0.434 -0.27,-0.954 -0.27,-1.561 0,-0.696 0.13,-1.309 0.388,-1.836 0.258,-0.528 0.605,-0.966 1.045,-1.314 0.438,-0.348 0.953,-0.608 1.549,-0.78 0.596,-0.172 1.227,-0.258 1.893,-0.258 0.344,0 0.689,0.026 1.033,0.079 0.344,0.053 0.666,0.124 0.966,0.213 0.3,0.089 0.565,0.191 0.798,0.303 0.231,0.112 0.385,0.206 0.46,0.281 0.075,0.075 0.126,0.139 0.151,0.191 0.026,0.052 0.049,0.122 0.068,0.208 0.018,0.086 0.031,0.194 0.039,0.325 0.007,0.131 0.011,0.294 0.011,0.489 0,0.217 -0.005,0.4 -0.017,0.55 -0.012,0.15 -0.03,0.273 -0.057,0.371 -0.025,0.097 -0.063,0.168 -0.111,0.213 -0.049,0.045 -0.115,0.067 -0.197,0.067 -0.082,0 -0.213,-0.053 -0.393,-0.157 -0.18,-0.105 -0.4,-0.219 -0.663,-0.343 -0.263,-0.123 -0.565,-0.235 -0.909,-0.337 -0.345,-0.101 -0.723,-0.151 -1.135,-0.151 -0.322,0 -0.603,0.039 -0.842,0.118 -0.24,0.078 -0.44,0.187 -0.602,0.325 -0.16,0.139 -0.281,0.305 -0.359,0.5 -0.078,0.195 -0.117,0.4 -0.117,0.617 0,0.322 0.088,0.602 0.264,0.837 0.176,0.236 0.412,0.446 0.707,0.629 0.296,0.184 0.631,0.356 1.006,0.517 0.374,0.161 0.756,0.332 1.145,0.512 0.39,0.18 0.771,0.383 1.146,0.611 0.374,0.229 0.707,0.502 0.999,0.82 0.292,0.318 0.528,0.692 0.708,1.123 0.182,0.43 0.272,0.938 0.272,1.522 z"
   id="path19" />
</g></g>
</svg>
