<?xml version="1.0" encoding="UTF-8" standalone="no"?>
<!-- Generator: Adobe Illustrator 16.0.0, SVG Export Plug-In . SVG Version: 6.00 Build 0)  -->

<svg
   version="1.1"
   id="Ebene_1"
   x="0px"
   y="0px"
   width="23.000002"
   height="23"
   viewBox="0 0 23.000002 23"
   enable-background="new 0 0 100 100"
   xml:space="preserve"
   sodipodi:docname="Kunstschule.svg"
   inkscape:version="1.1.1 (3bf5ae0d25, 2021-09-20)"
   xmlns:inkscape="http://www.inkscape.org/namespaces/inkscape"
   xmlns:sodipodi="http://sodipodi.sourceforge.net/DTD/sodipodi-0.dtd"
   xmlns="http://www.w3.org/2000/svg"
   xmlns:svg="http://www.w3.org/2000/svg"><defs
   id="defs175" /><sodipodi:namedview
   id="namedview173"
   pagecolor="#ffffff"
   bordercolor="#666666"
   borderopacity="1.0"
   inkscape:pageshadow="2"
   inkscape:pageopacity="0.0"
   inkscape:pagecheckerboard="0"
   showgrid="false"
   inkscape:zoom="8.09"
   inkscape:cx="19.962917"
   inkscape:cy="29.975278"
   inkscape:window-width="1920"
   inkscape:window-height="1017"
   inkscape:window-x="-8"
   inkscape:window-y="-8"
   inkscape:window-maximized="1"
   inkscape:current-layer="Ebene_1" />
<linearGradient
   id="SVGID_1_"
   gradientUnits="userSpaceOnUse"
   x1="25.708"
   y1="53.709"
   x2="76.709"
   y2="53.709"
   gradientTransform="matrix(0.41818186,0,0,0.41818178,-9.9142556,-10.960124)">
	<stop
   offset="1"
   style="stop-color:#FFFFFF"
   id="stop93" />
	<stop
   offset="1"
   style="stop-color:#000000"
   id="stop95" />
</linearGradient>
<ellipse
   fill="url(#SVGID_1_)"
   stroke-width="1.67273"
   stroke-miterlimit="10"
   cx="11.500001"
   cy="11.5"
   id="circle98"
   style="fill:url(#SVGID_1_);stroke:#d45500;stroke-opacity:1"
   rx="10.663636"
   ry="10.663635" />


<g
   id="g828"
   transform="matrix(0.46857887,0,0,0.46857887,-1.9809411,-1.9637713)"><rect
     style="fill:none;stroke:#d45500;stroke-width:2.08004;stroke-miterlimit:4;stroke-dasharray:none;stroke-opacity:1"
     id="rect1089"
     width="3.0373468"
     height="26.608292"
     x="39.506943"
     y="-14.373879"
     ry="1.3981917"
     inkscape:transform-center-x="0.17101608"
     inkscape:transform-center-y="-0.56329617"
     transform="matrix(0.76543183,0.64351699,-0.55522213,0.8317021,0,0)" /><path
     id="path1292"
     style="fill:#d45500;stroke:#d45500;stroke-width:1.64841;stroke-opacity:1"
     d="m 25.145542,29.135204 c -3.357771,-7.3e-5 -6.079804,2.612448 -6.079725,5.835133 0.0039,0.197906 -0.0218,1.086483 0.003,1.282991 l -0.282152,2.130301 c -0.753087,2.408828 -0.424377,1.708457 -1.29569,2.97239 1.591551,-0.226764 3.886169,-0.546208 5.477722,-0.427968 l 2.24884,-0.05331 c 3.253804,-0.127278 6.001051,-2.778917 6.007752,-5.904403 7.8e-5,-3.222687 -2.721953,-5.835207 -6.079724,-5.835132 z"
     sodipodi:nodetypes="ccccccccc" /></g></svg>
