<?xml version="1.0" encoding="UTF-8" standalone="no"?>
<!-- Generator: Adobe Illustrator 16.0.0, SVG Export Plug-In . SVG Version: 6.00 Build 0)  -->

<svg
   version="1.1"
   id="Ebene_1"
   x="0px"
   y="0px"
   width="23.000002"
   height="23"
   viewBox="0 0 23.000002 23"
   enable-background="new 0 0 100 100"
   xml:space="preserve"
   sodipodi:docname="Privatschule.svg"
   inkscape:version="1.1.1 (3bf5ae0d25, 2021-09-20)"
   xmlns:inkscape="http://www.inkscape.org/namespaces/inkscape"
   xmlns:sodipodi="http://sodipodi.sourceforge.net/DTD/sodipodi-0.dtd"
   xmlns="http://www.w3.org/2000/svg"
   xmlns:svg="http://www.w3.org/2000/svg"><defs
   id="defs892">
	
	
</defs><sodipodi:namedview
   id="namedview890"
   pagecolor="#ffffff"
   bordercolor="#666666"
   borderopacity="1.0"
   inkscape:pageshadow="2"
   inkscape:pageopacity="0.0"
   inkscape:pagecheckerboard="0"
   showgrid="false"
   inkscape:zoom="8.32"
   inkscape:cx="25.540865"
   inkscape:cy="24.459135"
   inkscape:window-width="1920"
   inkscape:window-height="1017"
   inkscape:window-x="-8"
   inkscape:window-y="-8"
   inkscape:window-maximized="1"
   inkscape:current-layer="Ebene_1" />
<linearGradient
   id="SVGID_1_"
   gradientUnits="userSpaceOnUse"
   x1="26.502899"
   y1="52.998001"
   x2="77.503899"
   y2="52.998001"
   gradientTransform="matrix(0.41818186,0,0,0.41818178,-10.246709,-10.662798)">
	<stop
   offset="1"
   style="stop-color:#FFFFFF"
   id="stop870" />
	<stop
   offset="1"
   style="stop-color:#000000"
   id="stop872" />
</linearGradient>
<ellipse
   fill="url(#SVGID_1_)"
   stroke-width="1.67273"
   stroke-miterlimit="10"
   cx="11.500001"
   cy="11.5"
   id="circle875"
   style="fill:url(#SVGID_1_);stroke:#b4749d;stroke-opacity:1"
   rx="10.663636"
   ry="10.663635" />

<g
   id="g883"
   transform="translate(-24.502997,-25.497999)">
</g>
<g
   id="g833"
   transform="matrix(0.44120942,0,0,0.44120942,-0.73120297,-0.65468532)"><rect
     x="12.802002"
     y="26.580997"
     width="29.398001"
     height="16.348"
     id="rect877"
     style="fill:#b4749d;fill-opacity:1" /><polygon
     points="52.018,52.998 32.028,53.063 41.991,43.316 51.952,33.569 61.979,43.25 72.006,52.932 "
     id="polygon879"
     style="fill:#b4749d;fill-opacity:1"
     transform="translate(-24.502998,-25.498001)" /><g
     id="g887"
     transform="translate(-24.502998,-25.498001)">
	<path
   fill="#ffffff"
   d="m 58.721,58.4 c 0,0.979 -0.181,1.848 -0.54,2.611 -0.36,0.762 -0.86,1.409 -1.499,1.941 -0.639,0.531 -1.391,0.932 -2.256,1.2 -0.865,0.268 -1.797,0.403 -2.795,0.403 -0.699,0 -1.346,-0.06 -1.942,-0.178 -0.596,-0.118 -1.128,-0.264 -1.595,-0.436 -0.468,-0.172 -0.86,-0.349 -1.177,-0.531 -0.317,-0.182 -0.537,-0.338 -0.66,-0.467 -0.124,-0.129 -0.215,-0.293 -0.274,-0.492 -0.059,-0.198 -0.088,-0.465 -0.088,-0.797 0,-0.236 0.011,-0.433 0.032,-0.589 0.021,-0.155 0.054,-0.282 0.097,-0.378 0.043,-0.098 0.097,-0.164 0.161,-0.202 0.064,-0.037 0.14,-0.056 0.226,-0.056 0.15,0 0.363,0.091 0.636,0.273 0.274,0.183 0.626,0.381 1.056,0.596 0.43,0.215 0.948,0.417 1.555,0.604 0.607,0.188 1.309,0.282 2.104,0.282 0.602,0 1.151,-0.08 1.651,-0.242 0.499,-0.16 0.929,-0.389 1.289,-0.685 0.359,-0.295 0.636,-0.657 0.829,-1.087 0.193,-0.43 0.291,-0.919 0.291,-1.467 0,-0.591 -0.135,-1.096 -0.403,-1.515 -0.268,-0.419 -0.623,-0.786 -1.063,-1.104 -0.44,-0.318 -0.942,-0.606 -1.507,-0.87 -0.563,-0.264 -1.142,-0.532 -1.731,-0.806 -0.592,-0.274 -1.166,-0.577 -1.725,-0.911 -0.559,-0.332 -1.058,-0.725 -1.499,-1.176 -0.441,-0.451 -0.797,-0.98 -1.072,-1.587 -0.273,-0.607 -0.411,-1.335 -0.411,-2.184 0,-0.87 0.158,-1.646 0.475,-2.328 0.317,-0.682 0.758,-1.254 1.321,-1.716 0.564,-0.462 1.235,-0.814 2.015,-1.055 0.778,-0.242 1.619,-0.363 2.521,-0.363 0.462,0 0.927,0.041 1.394,0.121 0.468,0.081 0.907,0.188 1.321,0.322 0.414,0.135 0.781,0.285 1.104,0.451 0.322,0.167 0.535,0.301 0.637,0.403 0.102,0.102 0.17,0.183 0.201,0.241 0.033,0.06 0.06,0.135 0.081,0.226 0.021,0.092 0.038,0.202 0.048,0.331 0.012,0.129 0.017,0.295 0.017,0.5 0,0.193 -0.008,0.365 -0.024,0.516 -0.016,0.15 -0.04,0.277 -0.072,0.379 -0.032,0.102 -0.078,0.177 -0.137,0.226 -0.06,0.048 -0.127,0.072 -0.201,0.072 -0.119,0 -0.305,-0.075 -0.557,-0.226 -0.252,-0.151 -0.561,-0.319 -0.926,-0.508 -0.365,-0.188 -0.798,-0.359 -1.298,-0.516 -0.499,-0.155 -1.061,-0.233 -1.684,-0.233 -0.58,0 -1.085,0.078 -1.515,0.233 -0.43,0.156 -0.784,0.363 -1.063,0.621 -0.279,0.258 -0.489,0.564 -0.628,0.918 -0.139,0.354 -0.209,0.73 -0.209,1.128 0,0.58 0.134,1.08 0.403,1.499 0.269,0.419 0.625,0.79 1.072,1.112 0.445,0.322 0.953,0.617 1.522,0.887 0.569,0.268 1.149,0.539 1.74,0.813 0.591,0.273 1.171,0.575 1.74,0.902 0.569,0.327 1.076,0.714 1.522,1.16 0.446,0.446 0.806,0.972 1.08,1.579 0.272,0.612 0.41,1.329 0.41,2.155 z"
   id="path885" />
</g></g>
</svg>
